Coordinates
version=1
nRows=65
nColumns=12
inDegrees=yes

Units are S.I. units (second, meters, Newtons, ...)
Angles are in degrees

endheader
time	SC_y	SC_z	SC_x	AC_y	AC_z	AC_x	GH_y	GH_z	GH_yy	EL_x	PS_y
       0.0              -51.83          22.24          73.42          60.09          -1.51          7.494         -72.79          38.35         -68.06           26.1          32.17
   0.02288              -51.83          22.24          73.41          60.09         -1.512          7.493          -72.8          38.34         -68.04           26.1          32.18
   0.04577              -51.83          22.25          73.41          60.08         -1.514          7.492          -72.8          38.34         -68.02          26.09          32.19
   0.06865              -51.83          22.25          73.41          60.08         -1.516          7.492         -72.81          38.34          -68.0          26.09           32.2
   0.09154              -51.83          22.25           73.4          60.07         -1.518          7.491         -72.82          38.34         -67.98          26.09          32.21
    0.1144              -51.83          22.25          73.39          60.07          -1.52           7.49         -72.82          38.33         -67.95          26.09          32.22
    0.1373              -51.83          22.25          73.39          60.06         -1.523          7.489         -72.83          38.33         -67.93          26.09          32.23
    0.1602              -51.83          22.26          73.38          60.06         -1.525          7.487         -72.84          38.33          -67.9          26.09          32.24
    0.1831              -51.83          22.26          73.38          60.05         -1.528          7.486         -72.85          38.33         -67.87          26.09          32.25
     0.206              -51.83          22.26          73.37          60.04         -1.531          7.485         -72.86          38.32         -67.84          26.09          32.27
    0.2288              -51.84          22.27          73.36          60.04         -1.534          7.484         -72.87          38.32          -67.8          26.09          32.28
    0.2517              -51.84          22.27          73.35          60.03         -1.537          7.482         -72.88          38.31         -67.77          26.09           32.3
    0.2746              -51.84          22.27          73.34          60.02         -1.541           7.48         -72.89          38.31         -67.73          26.09          32.32
    0.2975              -51.84          22.28          73.33          60.01         -1.545          7.479         -72.91          38.31         -67.68          26.09          32.33
    0.3204              -51.84          22.28          73.32           60.0         -1.549          7.477         -72.92           38.3         -67.64          26.09          32.35
    0.3433              -51.84          22.28          73.31          59.99         -1.554          7.475         -72.94           38.3         -67.59          26.08          32.38
    0.3661              -51.84          22.29           73.3          59.98         -1.559          7.472         -72.95          38.29         -67.53          26.08           32.4
     0.389              -51.84          22.29          73.28          59.96         -1.565           7.47         -72.97          38.28         -67.47          26.08          32.43
    0.4119              -51.84           22.3          73.27          59.95         -1.571          7.467         -72.99          38.28         -67.41          26.08          32.46
    0.4348              -51.84          22.31          73.25          59.93         -1.577          7.464         -73.02          38.27         -67.34          26.08          32.49
    0.4577              -51.84          22.31          73.23          59.92         -1.584          7.461         -73.04          38.26         -67.26          26.08          32.52
    0.4806              -51.84          22.32          73.22           59.9         -1.592          7.458         -73.07          38.25         -67.17          26.08          32.56
    0.5035              -51.85          22.33          73.19          59.88         -1.601          7.454          -73.1          38.24         -67.08          26.07           32.6
    0.5263              -51.85          22.34          73.17          59.85         -1.611           7.45         -73.13          38.23         -66.97          26.07          32.65
    0.5492              -51.85          22.35          73.14          59.83         -1.622          7.445         -73.16          38.22         -66.85          26.07           32.7
    0.5721              -51.85          22.36          73.11           59.8         -1.634          7.439          -73.2           38.2         -66.72          26.07          32.75
     0.595              -51.85          22.37          73.08          59.77         -1.647          7.433         -73.25          38.19         -66.58          26.06          32.82
    0.6179              -51.86          22.39          73.04          59.73         -1.663          7.427          -73.3          38.17         -66.41          26.06          32.89
    0.6408              -51.86           22.4           73.0          59.69          -1.68          7.419         -73.36          38.15         -66.22          26.05          32.97
    0.6636              -51.86          22.42          72.95          59.64         -1.699           7.41         -73.42          38.13         -66.01          26.05          33.06
    0.6865              -51.86          22.44          72.89          59.59         -1.722          7.401          -73.5           38.1         -65.77          26.04          33.17
    0.7094              -51.87          22.47          72.83          59.53         -1.747          7.389         -73.58          38.07         -65.49          26.04          33.29
    0.7323              -51.87          22.49          72.76          59.46         -1.777          7.376         -73.68          38.04         -65.17          26.03          33.43
    0.7552              -51.88          22.53          72.67          59.38         -1.811          7.361          -73.8           38.0          -64.8          26.02          33.59
    0.7781              -51.88          22.56          72.57          59.28         -1.852          7.343         -73.93          37.95         -64.37          26.01          33.78
    0.8009              -51.89          22.61          72.45          59.17         -1.899          7.322         -74.09           37.9         -63.85           26.0          34.01
    0.8238               -51.9          22.66          72.31          59.03         -1.955          7.297         -74.28          37.83         -63.24          25.99          34.27
    0.8467              -51.91          22.72          72.15          58.87         -2.023          7.267          -74.5          37.76         -62.51          25.97          34.59
    0.8696              -51.92           22.8          71.94          58.68         -2.104          7.231         -74.77          37.66         -61.63          25.95          34.98
    0.8925              -51.94          22.89           71.7          58.44         -2.204          7.187         -75.11          37.55         -60.55          25.93          35.45
    0.9154              -51.96          23.01          71.39          58.15         -2.327          7.133         -75.52          37.41         -59.22           25.9          36.03
    0.9382              -51.98          23.15          71.01          57.78         -2.481          7.065         -76.03          37.23         -57.55          25.86          36.76
    0.9611              -52.01          23.34          70.53          57.32         -2.674          6.979         -76.68          37.01         -55.46          25.81          37.68
     0.984              -52.05          23.57          69.92          56.74          -2.92          6.871          -77.5          36.73          -52.8          25.75          38.84
     1.007               -52.1          23.86          69.14          55.99         -3.235          6.731         -78.55          36.37         -49.39          25.68          40.33
      1.03              -52.16          24.24          68.13          55.03         -3.639          6.553          -79.9           35.9         -45.02          25.58          42.24
     1.053              -52.24          24.72          66.85           53.8         -4.155          6.325         -81.62          35.31         -39.44          25.45          44.68
     1.076              -52.34          25.33          65.24          52.26         -4.804          6.038         -83.78          34.56         -32.41           25.3          47.75
     1.098              -52.46          26.07          63.27          50.38         -5.595          5.688         -86.42          33.66         -23.86          25.11          51.48
     1.121               -52.6          26.93           61.0           48.2         -6.511          5.283         -89.48           32.6         -13.94          24.88          55.82
     1.144              -52.75          27.86          58.53          45.84         -7.504          4.844         -92.79          31.46         -3.199          24.64          60.51
     1.167               -52.9           28.8          56.07          43.48         -8.496          4.406          -96.1          30.32          7.541           24.4           65.2
      1.19              -53.04          29.66          53.79           41.3         -9.412            4.0         -99.16          29.27          17.46          24.18          69.54
     1.213              -53.17           30.4          51.83          39.42          -10.2          3.651         -101.8          28.36          26.02          23.99          73.28
     1.236              -53.27          31.01          50.22          37.88         -10.85          3.364         -104.0          27.62          33.04          23.83          76.35
     1.259              -53.34          31.49          48.94          36.65         -11.37          3.136         -105.7          27.03          38.62          23.71          78.79
     1.282              -53.41          31.87          47.93          35.69         -11.77          2.957         -107.0          26.56          42.99          23.61           80.7
     1.304              -53.46          32.16          47.15          34.94         -12.09          2.818         -108.1           26.2           46.4          23.53          82.18
     1.327              -53.49          32.39          46.54          34.36         -12.33          2.709         -108.9          25.92          49.06          23.47          83.35
      1.35              -53.52          32.58          46.06           33.9         -12.53          2.624         -109.5           25.7          51.16          23.43          84.26
     1.373              -53.55          32.72          45.68          33.53         -12.68          2.556         -110.1          25.52          52.82          23.39          84.99
     1.396              -53.57          32.84          45.37          33.24          -12.8          2.502         -110.5          25.38          54.15          23.36          85.57
     1.419              -53.58          32.93          45.12           33.0          -12.9          2.457         -110.8          25.26          55.23          23.34          86.04
     1.442              -53.59          33.01          44.92          32.81         -12.98          2.421         -111.1          25.17          56.12          23.32          86.43
     1.465               -53.6          33.07          44.75          32.65         -13.05          2.391         -111.3          25.09          56.85           23.3          86.75
